<?xml version="1.0" standalone="no"?>
<!DOCTYPE svg PUBLIC "-//W3C//DTD SVG 20010904//EN"
 "http://www.w3.org/TR/2001/REC-SVG-20010904/DTD/svg10.dtd">
<svg version="1.0" xmlns="http://www.w3.org/2000/svg"
 width="1000.000000pt" height="1000.000000pt" viewBox="0 0 1000.000000 1000.000000"
 preserveAspectRatio="xMidYMid meet">

<g transform="translate(0.000000,1000.000000) scale(0.100000,-0.100000)"
fill="#000000" stroke="none">
<path d="M7190 9800 c-384 -30 -796 -265 -1229 -700 -438 -441 -809 -984
-1187 -1740 -323 -647 -461 -1019 -699 -1885 -120 -439 -141 -502 -165 -510
-49 -16 -183 -116 -261 -195 -121 -123 -222 -282 -299 -472 -19 -47 -33 -64
-78 -95 -74 -51 -191 -168 -242 -243 -61 -90 -191 -388 -241 -549 -20 -67 -21
-87 -15 -205 6 -130 17 -206 51 -361 17 -77 20 -82 77 -137 l60 -57 -7 -90 -8
-91 -86 0 c-249 0 -741 76 -1146 176 -233 57 -512 145 -598 188 -76 38 -84 45
-115 101 -84 152 -237 242 -477 280 l-96 16 -127 -40 c-70 -21 -153 -46 -184
-55 -79 -22 -98 -45 -98 -116 0 -113 56 -238 138 -310 61 -55 185 -130 352
-216 145 -75 422 -204 438 -204 5 0 21 9 34 20 l26 20 111 -40 c281 -100 647
-205 841 -241 261 -48 718 -107 1000 -129 300 -23 263 -14 303 -75 86 -129
200 -258 268 -301 121 -79 521 -304 644 -363 370 -178 725 -271 1038 -271 234
0 393 60 599 225 41 33 128 101 194 150 129 98 268 225 289 265 8 14 51 65 97
113 l83 88 65 -14 65 -14 -3 -39 c-6 -65 -66 -287 -140 -512 -69 -210 -70
-212 -51 -236 18 -23 18 -25 -16 -127 -19 -56 -35 -111 -35 -120 0 -18 33 -27
118 -31 23 -1 42 -7 42 -12 0 -23 21 23 51 112 28 84 34 94 64 106 27 12 36
23 45 58 58 223 280 779 320 799 21 10 149 27 335 44 540 50 746 98 1025 241
188 96 387 238 559 400 99 93 126 143 112 205 -16 68 -13 130 9 178 19 41 22
43 53 36 114 -24 133 -18 218 71 80 85 172 251 298 537 83 189 95 223 152 412
96 323 149 581 181 885 17 165 17 781 0 950 -56 546 -208 1387 -363 2005 -113
449 -175 638 -291 885 -75 159 -109 215 -120 198 -7 -9 -8 -7 -4 7 6 22 -29
85 -36 64 -3 -9 -13 -6 -36 11 -18 14 -30 30 -27 38 2 7 1 11 -4 7 -5 -3 -11
-2 -14 2 -2 5 -2 2 0 -5 2 -8 -9 -5 -27 8 -17 12 -30 26 -30 31 0 5 -9 9 -20
9 -11 0 -20 5 -20 10 0 6 -6 10 -14 10 -8 0 -16 7 -19 15 -4 8 -21 21 -39 28
-19 8 -40 20 -49 28 -8 8 -36 25 -62 39 -26 13 -47 28 -47 31 0 4 -19 17 -42
29 -38 19 -99 57 -185 114 -15 11 -46 31 -68 45 -22 14 -58 40 -81 58 -23 18
-45 33 -50 33 -5 0 -22 14 -38 30 -16 17 -35 30 -42 30 -6 0 -14 7 -18 15 -3
9 -22 25 -42 37 -23 14 -31 23 -23 28 8 5 5 10 -10 15 -11 3 -25 4 -31 0 -6
-3 -7 1 -4 9 4 11 0 16 -13 16 -11 0 -28 9 -38 20 -10 11 -28 20 -39 20 -19 1
-20 1 -3 11 9 6 27 7 40 3 12 -3 20 -4 17 -1 -17 18 -439 144 -595 178 -95 20
-114 20 -265 9z m744 -159 c3 -5 -1 -11 -9 -15 -9 -3 -15 0 -15 9 0 16 16 20
24 6z m43 -17 c-3 -3 -12 -4 -19 -1 -8 3 -5 6 6 6 11 1 17 -2 13 -5z m1173
-819 c14 -19 14 -19 -2 -6 -10 7 -18 18 -18 24 0 6 1 8 3 6 1 -2 9 -13 17 -24z
m-1332 -101 c29 -30 72 -64 96 -75 44 -19 44 -19 65 -106 62 -259 85 -457 85
-713 0 -301 -32 -477 -124 -676 -44 -95 -147 -254 -207 -321 l-38 -41 -80 10
c-99 12 -280 4 -405 -17 -136 -23 -341 -95 -515 -180 -440 -215 -818 -554
-1120 -1005 -109 -164 -168 -267 -224 -390 -59 -130 -70 -130 -59 2 34 383
125 784 265 1157 231 618 463 1045 792 1456 125 156 417 454 551 562 303 244
603 389 815 392 49 1 52 -1 103 -55z"/>
</g>
</svg>
