<?xml version="1.0" standalone="no"?>
<!DOCTYPE svg PUBLIC "-//W3C//DTD SVG 20010904//EN"
 "http://www.w3.org/TR/2001/REC-SVG-20010904/DTD/svg10.dtd">
<svg version="1.0" xmlns="http://www.w3.org/2000/svg"
 width="200.000000pt" height="50.000000pt" viewBox="0 0 200.000000 50.000000"
 preserveAspectRatio="xMidYMid meet">

<g transform="translate(0.000000,50.000000) scale(0.100000,-0.100000)"
fill="#000000" stroke="none">
<path d="M630 385 c0 -8 7 -15 15 -15 8 0 15 7 15 15 0 8 -7 15 -15 15 -8 0
-15 -7 -15 -15z"/>
<path d="M85 381 c-45 -19 -70 -73 -59 -129 12 -57 64 -92 119 -78 22 6 25 12
25 51 0 25 -4 45 -10 45 -5 0 -10 -18 -10 -40 0 -36 -2 -40 -25 -40 -66 0 -99
97 -54 155 18 22 28 26 60 23 40 -4 52 5 23 16 -20 8 -44 7 -69 -3z"/>
<path style="fill: #a50104;" d="M1143 380 c-12 -5 -25 -21 -29 -36 -8 -30 12 -52 75 -86 21 -12 31
-24 29 -35 -3 -15 -14 -18 -56 -18 -61 1 -73 -20 -17 -31 67 -12 119 17 113
65 -2 20 -16 33 -55 56 -67 38 -67 60 0 60 49 0 65 18 25 29 -31 8 -58 7 -85
-4z"/>
<path style="fill: #a50104;" d="M1330 350 c0 -11 -7 -20 -15 -20 -8 0 -15 -7 -15 -15 0 -8 7 -15 15
-15 11 0 15 -12 15 -50 0 -42 4 -52 24 -66 27 -17 67 -16 73 3 3 7 -8 13 -24
15 -26 3 -28 7 -31 51 -3 46 -3 47 27 47 21 0 31 5 31 15 0 10 -10 15 -30 15
-23 0 -30 4 -30 20 0 13 -7 20 -20 20 -13 0 -20 -7 -20 -20z"/>
<path d="M243 323 c-24 -9 -13 -18 24 -18 27 0 38 -5 41 -16 2 -12 -7 -18 -37
-23 -44 -7 -66 -33 -56 -66 8 -25 46 -35 74 -21 15 9 26 8 40 -1 20 -12 44 -3
25 10 -6 4 -14 34 -17 66 -3 33 -12 63 -19 67 -14 9 -55 10 -75 2z m67 -91 c0
-23 -19 -42 -42 -42 -24 0 -34 26 -18 45 18 22 60 19 60 -3z"/>
<path d="M390 250 c0 -47 4 -80 10 -80 6 0 10 26 10 58 0 53 11 82 32 82 4 0
8 -31 8 -70 0 -40 4 -70 10 -70 6 0 10 22 10 49 0 27 2 55 5 63 3 7 -1 22 -9
33 -13 17 -18 18 -35 7 -13 -7 -21 -8 -21 -2 0 5 -4 10 -10 10 -6 0 -10 -33
-10 -80z"/>
<path  d="M493 323 c-7 -2 -13 -9 -13 -14 0 -4 7 -6 15 -3 12 5 15 -6 15 -65 0
-56 3 -71 15 -71 12 0 15 13 15 61 0 57 -12 100 -28 98 -4 0 -13 -3 -19 -6z"/>
<path  d="M580 320 c0 -5 11 -10 25 -10 24 0 25 -2 25 -70 0 -56 3 -70 15 -70
12 0 15 16 15 80 l0 80 -40 0 c-22 0 -40 -4 -40 -10z"/>
<path d="M760 250 c0 -64 3 -80 15 -80 12 0 15 13 15 60 0 50 3 61 21 70 38
21 49 6 49 -65 0 -51 3 -65 15 -65 12 0 15 14 15 64 0 88 -27 116 -78 80 -20
-14 -22 -14 -22 0 0 9 -7 16 -15 16 -12 0 -15 -16 -15 -80z"/>
<path  d="M960 310 c-27 -27 -28 -100 -2 -123 23 -21 41 -21 70 -1 24 17 27 9
12 -31 -9 -24 -15 -27 -50 -23 -42 4 -54 -6 -20 -17 30 -10 79 4 90 25 13 25
13 190 0 190 -5 0 -10 -5 -10 -10 0 -7 -6 -7 -19 0 -29 15 -49 12 -71 -10z
m78 -12 c17 -17 15 -68 -5 -90 -32 -36 -73 -12 -73 42 0 51 47 79 78 48z"/>
<path style="fill: #a50104;" d="M1505 318 c-11 -6 -23 -16 -27 -22 -14 -20 -8 -84 8 -100 40 -40 115
-26 133 25 25 72 -48 134 -114 97z m70 -68 c0 -43 -1 -45 -30 -45 -27 0 -30 4
-33 33 -5 50 4 64 35 60 26 -3 28 -6 28 -48z"/>
<path style="fill: #a50104;" d="M1670 250 c0 -73 2 -80 20 -80 17 0 20 7 20 48 0 26 5 53 12 60 17
17 48 15 48 -3 0 -8 7 -15 15 -15 22 0 20 59 -2 67 -9 4 -29 -1 -45 -10 -24
-14 -28 -14 -28 -2 0 8 -9 15 -20 15 -18 0 -20 -7 -20 -80z"/>
<path style="fill: #a50104;" d="M1865 254 c37 -81 35 -114 -5 -114 -11 0 -20 -7 -20 -15 0 -16 27
-20 47 -7 11 7 103 192 103 207 0 3 -5 5 -10 5 -6 0 -20 -20 -32 -45 -12 -25
-25 -45 -28 -45 -3 0 -16 20 -28 45 -15 31 -28 45 -42 45 -18 0 -17 -5 15 -76z"/>
</g>
</svg>
